<svg width="32" height="32" viewBox="0 0 32 32" fill="none" xmlns="http://www.w3.org/2000/svg">
<g clip-path="url(#clip0_5616_21283)">
<path d="M15.6166 2C14.0523 2 12.5521 2.62141 11.446 3.72752C10.3399 4.83363 9.71849 6.33383 9.71849 7.89811V16.1555C9.71849 17.7197 10.3399 19.2199 11.446 20.3261C12.5521 21.4322 14.0523 22.0536 15.6166 22.0536C17.1809 22.0536 18.6811 21.4322 19.7872 20.3261C20.8933 19.2199 21.5147 17.7197 21.5147 16.1555V7.89811C21.5147 6.33383 20.8933 4.83363 19.7872 3.72752C18.6811 2.62141 17.1809 2 15.6166 2V2ZM6.17962 14.9758C6.49248 14.9758 6.79252 15.1001 7.01374 15.3213C7.23496 15.5426 7.35924 15.8426 7.35924 16.1555C7.35924 18.3455 8.22921 20.4457 9.77777 21.9943C11.3263 23.5428 13.4266 24.4128 15.6166 24.4128C17.8066 24.4128 19.9069 23.5428 21.4554 21.9943C23.004 20.4457 23.874 18.3455 23.874 16.1555C23.874 15.8426 23.9982 15.5426 24.2195 15.3213C24.4407 15.1001 24.7407 14.9758 25.0536 14.9758C25.3664 14.9758 25.6665 15.1001 25.8877 15.3213C26.1089 15.5426 26.2332 15.8426 26.2332 16.1555C26.2337 18.7673 25.2714 21.2876 23.5304 23.2345C21.7894 25.1814 19.3918 26.4182 16.7962 26.7084V29.1313C16.7962 29.4442 16.6719 29.7442 16.4507 29.9654C16.2295 30.1866 15.9295 30.3109 15.6166 30.3109C15.3037 30.3109 15.0037 30.1866 14.7825 29.9654C14.5613 29.7442 14.437 29.4442 14.437 29.1313V26.7084C11.8414 26.4182 9.44378 25.1814 7.70277 23.2345C5.96176 21.2876 4.9995 18.7673 5 16.1555C5 15.8426 5.12428 15.5426 5.3455 15.3213C5.56673 15.1001 5.86677 14.9758 6.17962 14.9758Z" fill="#A7A5A1"/>
<path d="M0.509766 0.646484L31.6225 31.7592" stroke="#C6C1BA" stroke-linecap="round"/>
</g>
<defs>
<clipPath id="clip0_5616_21283">
<rect width="32" height="32" fill="white"/>
</clipPath>
</defs>
</svg>
