<svg width="33" height="33" viewBox="0 0 33 33" fill="none" xmlns="http://www.w3.org/2000/svg">
<path d="M6.69423 26.1309C6.18306 26.1309 5.73579 25.9392 5.35241 25.5558C4.96903 25.1724 4.77734 24.7251 4.77734 24.214V7.60097C4.77734 7.0898 4.96903 6.64252 5.35241 6.25915C5.73579 5.87577 6.18306 5.68408 6.69423 5.68408H23.3072C23.8184 5.68408 24.2657 5.87577 24.6491 6.25915C25.0324 6.64252 25.2241 7.0898 25.2241 7.60097V14.4698L30.3358 9.35811V22.4568L25.2241 17.3451V24.214C25.2241 24.7251 25.0324 25.1724 24.6491 25.5558C24.2657 25.9392 23.8184 26.1309 23.3072 26.1309H6.69423Z" fill="#A7A5A1"/>
<path d="M0.503906 1L31.6166 32.1127" stroke="#C6C1BA" stroke-linecap="round"/>
</svg>
